HIERARCHY
ROOT Hips
{
	OFFSET 0.00 0.00 0.00
	CHANNELS 6 Xposition Yposition Zposition Xrotation Yrotation Zrotation
	JOINT Spine
	{
		OFFSET 0.00000 7.06766 0.00000
		CHANNELS 3 Xrotation Yrotation Zrotation
		JOINT Head
		{
			OFFSET 0.00000 15.03989 0.00000
			CHANNELS 3 Xrotation Yrotation Zrotation
			End Site
			{
				OFFSET 0.00000 4.52755 0.00000
			}
		}
		JOINT LeftShoulder
		{
			OFFSET 0.00000 10.53037 0.00000
			CHANNELS 3 Xrotation Yrotation Zrotation
			JOINT LeftArm
			{
				OFFSET 7.02886 0.00000 0.00000
				CHANNELS 3 Xrotation Yrotation Zrotation
				JOINT LeftForeArm
				{
					OFFSET 10.79770 0.00000 0.00000
					CHANNELS 3 Yrotation Zrotation Xrotation
					JOINT LeftHand
					{
						OFFSET 7.90744 0.00000 0.00000
						CHANNELS 3 Xrotation Yrotation Zrotation
						JOINT LeftHandThumb1
						{
							OFFSET 0.00000 0.00000 0.00000
							CHANNELS 3 Xrotation Zrotation Yrotation
							End Site
							{
								OFFSET 0.00000 0.00000 3.93700
							}
						}
						End Site
						{
							OFFSET 3.93700 0.00000 0.00000
						}
					}
				}
			}
		}
		JOINT RightShoulder
		{
			OFFSET 0.00000 10.53037 0.00000
			CHANNELS 3 Xrotation Yrotation Zrotation
			JOINT RightArm
			{
				OFFSET -7.02886 0.00000 0.00000
				CHANNELS 3 Xrotation Yrotation Zrotation
				JOINT RightForeArm
				{
					OFFSET -10.79770 0.00000 0.00000
					CHANNELS 3 Yrotation Zrotation Xrotation
					JOINT RightHand
					{
						OFFSET -7.90744 0.00000 0.00000
						CHANNELS 3 Xrotation Yrotation Zrotation
						JOINT RightHandThumb1
						{
							OFFSET 0.00000 0.00000 0.00000
							CHANNELS 3 Xrotation Zrotation Yrotation
							End Site
							{
								OFFSET 0.00000 0.00000 3.93700
							}
						}
						End Site
						{
							OFFSET -3.93700 0.00000 0.00000
						}
					}
				}
			}
		}
	}
	JOINT LeftUpLeg
	{
		OFFSET 4.01300 0.00000 0.00000
		CHANNELS 3 Xrotation Yrotation Zrotation
		JOINT LeftLeg
		{
			OFFSET 0.00000 -16.89976 0.00000
			CHANNELS 3 Xrotation Yrotation Zrotation
			JOINT LeftFoot
			{
				OFFSET 0.00000 -17.38918 0.00000
				CHANNELS 3 Xrotation Yrotation Zrotation
				JOINT LeftToeBase
				{
					OFFSET 0.00000 -1.27456 4.75673
					CHANNELS 3 Xrotation Yrotation Zrotation
					End Site
					{
						OFFSET 0.00000 0.00000 2.95275
					}
				}
			}
		}
	}
	JOINT RightUpLeg
	{
		OFFSET -4.01300 0.00000 0.00000
		CHANNELS 3 Xrotation Yrotation Zrotation
		JOINT RightLeg
		{
			OFFSET 0.00000 -16.89976 0.00000
			CHANNELS 3 Xrotation Yrotation Zrotation
			JOINT RightFoot
			{
				OFFSET 0.00000 -17.38918 0.00000
				CHANNELS 3 Xrotation Yrotation Zrotation
				JOINT RightToeBase
				{
					OFFSET 0.00000 -1.27456 4.75673
					CHANNELS 3 Xrotation Yrotation Zrotation
					End Site
					{
						OFFSET 0.00000 0.00000 2.95275
					}
				}
			}
		}
	}
}
MOTION
Frames: 13
Frame Time: 0.008333
 19.7059 35.2691 -23.3279 174.7826 -1.3683 179.4188 -14.7503 0.1475 -0.2836 6.4047 -2.3690 1.2309 -35.5904 1.2473 18.7334 1.0438 -1.4757 -6.2953 3.5533 0.0000 12.5083 0.5329 11.4080 -2.6921 33.1476 -0.0000 26.2537 -0.0658 -12.8205 -12.6095 -36.5174 -1.6236 7.2224 3.7776 -0.0000 38.6554 1.3308 -8.2702 9.1743 32.8623 0.0000 -24.3270 4.3670 11.1759 3.5489 -6.5277 0.0000 -0.0000 -16.8444 27.5705 2.1789 25.0294 0.0000 -0.0000 3.0601 -13.9954 -3.7716 -4.3831 -0.0000 -0.0000 -15.4813 -26.0298 4.5916 25.6808 -0.0000 0.0000
 19.7073 35.2688 -23.3298 174.7776 -1.3695 179.4136 -14.7470 0.2098 -0.2833 6.3942 -2.4308 1.2285 -35.5977 1.1907 18.7111 1.0065 -1.4435 -6.2705 3.5617 0.0000 12.5252 0.5360 11.4345 -2.7018 33.1476 -0.0000 26.2537 -0.0835 -12.8774 -12.6183 -36.5175 -1.6530 7.2096 3.7806 -0.0000 38.6586 1.3346 -8.2826 9.1866 32.8623 0.0000 -24.3270 4.3643 11.1719 3.5566 -6.5344 -0.0000 -0.0000 -16.8360 27.5781 2.1851 25.0964 0.0000 -0.0000 3.0612 -13.9988 -3.7635 -4.3876 0.0000 0.0000 -15.4785 -26.0179 4.5960 25.7088 -0.0000 -0.0000
 19.7088 35.2684 -23.3312 174.7673 -1.3711 179.4129 -14.7520 0.2028 -0.2907 6.3910 -2.4240 1.2276 -35.5970 1.1890 18.7319 0.9657 -1.4099 -6.2472 3.5719 0.0000 12.5242 0.5395 11.4161 -2.7240 33.1476 -0.0000 26.2537 -0.0754 -12.8834 -12.6198 -36.5241 -1.6582 7.2125 3.7749 -0.0000 38.6424 1.3359 -8.2942 9.1828 32.8623 0.0000 -24.3270 4.3555 11.1807 3.5579 -6.5331 0.0000 0.0000 -16.8443 27.5781 2.1657 25.0231 -0.0000 0.0000 3.0592 -14.0077 -3.7603 -4.4009 -0.0000 -0.0000 -15.5176 -25.9893 4.5186 25.8158 -0.0000 0.0000
 19.7108 35.2684 -23.3319 174.7414 -1.3676 179.4061 -14.7770 0.2088 -0.2897 6.3908 -2.4278 1.2134 -35.6089 1.1706 18.7554 0.9666 -1.3598 -6.2383 3.5505 0.0000 12.5183 0.5405 11.4249 -2.7266 33.1476 -0.0000 26.2537 -0.0862 -12.8860 -12.6199 -36.4922 -1.6740 7.1958 3.7906 -0.0000 38.6021 1.3349 -8.2791 9.1927 32.8623 0.0000 -24.3270 4.3291 11.1866 3.5684 -6.5316 -0.0000 -0.0000 -16.8529 27.5692 2.1787 25.0275 0.0000 -0.0000 3.0404 -13.9862 -3.7495 -4.3997 -0.0000 -0.0000 -15.4850 -26.0299 4.6012 25.6621 0.0000 0.0000
 19.7120 35.2684 -23.3324 174.7274 -1.3578 179.4040 -14.7850 0.2267 -0.2877 6.3881 -2.4423 1.1934 -35.6042 1.1637 18.7673 1.0542 -1.3708 -6.2250 3.6172 0.0000 12.4123 0.5367 11.4098 -2.7109 33.1476 -0.0000 26.2537 -0.1027 -12.8889 -12.6256 -36.5022 -1.6935 7.1765 3.7835 -0.0000 38.6281 1.3342 -8.2753 9.1918 32.8623 0.0000 -24.3270 4.3095 11.2010 3.5715 -6.5212 -0.0000 -0.0000 -16.8540 27.5727 2.1695 25.0251 0.0000 -0.0000 3.0283 -13.9721 -3.7459 -4.4057 -0.0000 -0.0000 -15.4562 -26.0506 4.6587 25.6150 0.0000 -0.0000
 19.7126 35.2681 -23.3335 174.7044 -1.3477 179.4065 -14.8100 0.2395 -0.2924 6.4007 -2.4400 1.1800 -35.5746 1.1791 18.7869 1.0002 -1.3589 -6.2138 3.6330 0.0000 12.3831 0.5356 11.3946 -2.7090 33.1476 -0.0000 26.2537 -0.1117 -12.8943 -12.6288 -36.5318 -1.7011 7.1688 3.7769 -0.0000 38.6180 1.3321 -8.2980 9.1530 32.8623 0.0000 -24.3270 4.2940 11.2058 3.5681 -6.5271 0.0000 -0.0000 -16.8523 27.5740 2.1728 25.0205 -0.0000 0.0000 3.0033 -13.9655 -3.7509 -4.4047 -0.0000 -0.0000 -15.5204 -26.0058 4.5046 25.7985 -0.0000 0.0000
 19.7143 35.2682 -23.3343 174.6885 -1.3426 179.4002 -14.8191 0.2383 -0.2916 6.3967 -2.3945 1.1728 -35.6057 1.1830 18.8139 0.9951 -1.3412 -6.2071 3.6336 0.0000 12.3860 0.5291 11.4372 -2.6663 33.1476 -0.0000 26.2537 -0.1414 -12.8929 -12.6303 -36.5546 -1.7151 7.1530 3.7911 -0.0000 38.6546 1.3342 -8.3036 9.1613 32.8623 0.0000 -24.3270 4.2754 11.2075 3.5767 -6.5215 -0.0000 -0.0000 -16.8590 27.5799 2.1832 25.0438 -0.0000 0.0000 2.9905 -13.9562 -3.7384 -4.4036 0.0000 0.0000 -15.4867 -25.9958 4.5895 25.7908 -0.0000 0.0000
 19.7153 35.2684 -23.3360 174.6784 -1.3310 179.3978 -14.8279 0.2433 -0.2899 6.4039 -2.3829 1.1618 -35.6034 1.2054 18.8387 0.9862 -1.3391 -6.2018 3.6410 0.0000 12.3596 0.5259 11.4429 -2.6490 33.1476 -0.0000 26.2537 -0.1694 -12.8661 -12.6433 -36.5185 -1.7555 7.1315 3.8105 -0.0000 38.6451 1.3324 -8.2875 9.1663 32.8623 0.0000 -24.3270 4.2666 11.2287 3.5791 -6.5191 0.0000 0.0000 -16.8583 27.5801 2.1662 25.0364 -0.0000 -0.0000 2.9814 -13.9655 -3.7360 -4.4056 0.0000 0.0000 -15.4542 -26.0195 4.6577 25.7303 -0.0000 -0.0000
 19.7162 35.2685 -23.3361 174.6566 -1.3156 179.3902 -14.8474 0.2576 -0.2804 6.4048 -2.3736 1.1500 -35.5920 1.2318 18.8495 0.9411 -1.3364 -6.1857 3.6441 0.0000 12.3792 0.5248 11.4181 -2.6489 33.1476 -0.0000 26.2537 -0.1573 -12.8852 -12.6503 -36.6828 -1.7645 7.1370 3.7966 -0.0000 38.7472 1.3363 -8.3172 9.1608 32.8623 0.0000 -24.3270 4.2424 11.2444 3.5877 -6.5127 -0.0000 -0.0000 -16.8714 27.5706 2.1754 25.0118 0.0000 -0.0000 2.9586 -13.9514 -3.7272 -4.4042 -0.0000 -0.0000 -15.4658 -25.9808 4.6169 25.7714 -0.0000 0.0000
 19.7173 35.2685 -23.3375 174.6390 -1.3040 179.3909 -14.8679 0.2671 -0.2831 6.4169 -2.3519 1.1375 -35.5830 1.2626 18.8571 0.9283 -1.3546 -6.1577 3.6596 0.0000 12.3639 0.5301 11.4266 -2.6737 33.1476 -0.0000 26.2537 -0.1661 -12.8807 -12.6506 -36.6267 -1.7714 7.1167 3.8184 -0.0000 38.6571 1.3475 -8.3618 9.1884 32.8623 0.0000 -24.3270 4.2318 11.2416 3.5880 -6.5175 -0.0000 -0.0000 -16.8627 27.5842 2.1749 25.0146 0.0000 0.0000 2.9429 -13.9520 -3.7283 -4.4107 0.0000 0.0000 -15.5050 -25.9803 4.4896 25.8490 -0.0000 0.0000
 19.7176 35.2689 -23.3380 174.6218 -1.2919 179.3856 -14.8882 0.2740 -0.2736 6.4466 -2.3377 1.1111 -35.6068 1.2663 18.8737 0.8922 -1.3018 -6.1493 3.5945 0.0000 12.4140 0.5375 11.4295 -2.7107 33.1476 -0.0000 26.2537 -0.1795 -12.8574 -12.6602 -36.4912 -1.7925 7.0908 3.8446 -0.0000 38.5497 1.3467 -8.3517 9.1937 32.8623 0.0000 -24.3270 4.2204 11.2424 3.5921 -6.5258 -0.0000 -0.0000 -16.8600 27.6030 2.1680 25.0012 0.0000 -0.0000 2.9211 -13.9530 -3.7228 -4.4004 -0.0000 -0.0000 -15.4640 -25.9937 4.6223 25.7117 0.0000 0.0000
 19.7177 35.2687 -23.3395 174.6067 -1.2819 179.3871 -14.9077 0.2818 -0.2715 6.4649 -2.2844 1.0998 -35.6018 1.2770 18.8864 0.8917 -1.2821 -6.1404 3.5902 0.0000 12.4079 0.5361 11.4520 -2.6982 33.1476 -0.0000 26.2537 -0.2084 -12.8454 -12.6783 -36.4633 -1.8060 7.0767 3.8409 -0.0000 38.5396 1.3581 -8.4184 9.1986 32.8623 0.0000 -24.3270 4.2017 11.2556 3.5913 -6.5103 -0.0000 0.0000 -16.8695 27.5953 2.1630 25.0437 -0.0000 -0.0000 2.9075 -13.9723 -3.7245 -4.4106 -0.0000 -0.0000 -15.4992 -25.9110 4.5524 25.9677 0.0000 -0.0000
 19.7184 35.2685 -23.3408 174.5895 -1.2666 179.3846 -14.9286 0.2950 -0.2660 6.4813 -2.2623 1.0866 -35.6229 1.2845 18.8893 0.9130 -1.2762 -6.1171 3.5976 0.0000 12.3859 0.5384 11.4509 -2.7102 33.1476 -0.0000 26.2537 -0.1796 -12.8724 -12.6828 -36.5034 -1.7960 7.0930 3.8456 -0.0000 38.5826 1.3628 -8.4513 9.1949 32.8623 0.0000 -24.3270 4.1879 11.2681 3.5947 -6.5105 0.0000 0.0000 -16.8711 27.5916 2.1755 25.0371 -0.0000 0.0000 2.8942 -13.9580 -3.7194 -4.4118 0.0000 0.0000 -15.4549 -25.9382 4.5987 25.8010 -0.0000 0.0000
